<?xml version="1.0" encoding="UTF-8"?>
<svg version="1.1" xmlns="http://www.w3.org/2000/svg" width="500" height="500">
<path d="M0 0 C165 0 330 0 500 0 C500 165 500 330 500 500 C335 500 170 500 0 500 C0 335 0 170 0 0 Z " fill="#FEFEFE" transform="translate(0,0)"/>
<path d="M0 0 C0.7651833 -0.00367669 1.5303666 -0.00735338 2.31873727 -0.01114148 C4.89660058 -0.02220201 7.47442361 -0.02602616 10.05230713 -0.02983093 C11.89506153 -0.0360938 13.73781467 -0.04274045 15.58056641 -0.04974365 C20.59721537 -0.06716997 25.6138548 -0.0777099 30.63052654 -0.08594918 C33.7633525 -0.09109597 36.89617547 -0.09717185 40.02899933 -0.10346031 C49.82672754 -0.12251709 59.62444819 -0.13674709 69.42219138 -0.14507228 C80.73966104 -0.15484696 92.05693523 -0.18117051 103.374336 -0.22157317 C112.11664999 -0.25171398 120.85890788 -0.26653923 129.60127282 -0.26985329 C134.82512846 -0.27220614 140.04877539 -0.28119704 145.27257538 -0.30631447 C150.1875282 -0.32956451 155.10213447 -0.33384076 160.01712799 -0.32355309 C161.82068534 -0.32305686 163.62425956 -0.32940268 165.42776489 -0.34310913 C167.89138721 -0.36078408 170.35375988 -0.35374426 172.81738281 -0.34057617 C173.8863683 -0.35703004 173.8863683 -0.35703004 174.97694945 -0.37381631 C179.9808582 -0.30930524 182.81666151 0.99843669 186.66265869 4.14717102 C189.05018694 7.72846339 188.94841356 10.27430013 188.93008423 14.40821838 C188.93461534 15.15313278 188.93914645 15.89804718 188.94381487 16.66553473 C188.95650453 19.16891614 188.95483557 21.67208126 188.95318604 24.17549133 C188.95916855 25.96751181 188.96597345 27.75952971 188.97354126 29.55154419 C188.99123933 34.42566177 188.99589831 39.29970917 188.99717283 44.17385578 C188.99907036 48.24183641 189.00642644 52.30980063 189.01351702 56.37777495 C189.02981398 65.97685941 189.03468488 75.57590635 189.03326416 85.17500305 C189.03206321 95.07647447 189.05315273 104.97772773 189.08475149 114.87914395 C189.11090949 123.37861699 189.12163161 131.87801878 189.12035334 140.37753177 C189.11984345 145.45439994 189.1255411 150.53107444 189.14670944 155.60790253 C189.16608309 160.38500115 189.16622223 165.16172121 189.15167618 169.93883324 C189.14958571 171.69036347 189.15430315 173.44191733 189.16639709 175.19340706 C189.18186298 177.58877791 189.17253359 179.98284575 189.15713501 182.37818909 C189.16742214 183.06779638 189.17770926 183.75740366 189.18830812 184.46790814 C189.11209642 189.85010002 187.72071334 192.85556698 184.66265869 197.14717102 C180.73364624 200.45481488 176.97972574 200.57502193 172.03375244 200.52812195 C171.27346741 200.53280192 170.51318237 200.53748189 169.7298584 200.54230368 C167.18644686 200.55425406 164.64357408 200.54479646 162.10015869 200.53535461 C160.27504156 200.5394203 158.4499269 200.54476216 156.62481689 200.55128479 C151.67032846 200.56496453 146.71602737 200.559657 141.76153564 200.55014753 C136.57752984 200.54255437 131.39354012 200.54959559 126.20953369 200.55430603 C117.50377522 200.55976458 108.79809308 200.55256935 100.09234619 200.5382843 C90.02609133 200.52195762 79.96001875 200.52724605 69.89376831 200.54376352 C61.25245605 200.55737554 52.61119867 200.55929943 43.96987915 200.55144751 C38.80819714 200.54676944 33.64660083 200.54614985 28.48492432 200.55605698 C23.63232893 200.5647202 18.77996866 200.55871645 13.92739868 200.54137421 C12.14601024 200.53740593 10.36460202 200.53854923 8.58322144 200.5451622 C6.15240174 200.55335438 3.72233651 200.54308468 1.29156494 200.52812195 C0.23295258 200.5381602 0.23295258 200.5381602 -0.8470459 200.54840124 C-5.1861932 200.49655783 -7.94440982 199.89242039 -11.33734131 197.14717102 C-14.55266718 193.16636545 -14.7692746 189.50122611 -14.73175049 184.56295776 C-14.74088714 183.42971389 -14.74088714 183.42971389 -14.75020838 182.2735762 C-14.76683482 179.74634293 -14.76206319 177.2196137 -14.75726318 174.69233704 C-14.76460369 172.87869239 -14.77318987 171.06505242 -14.78292847 169.25141907 C-14.80515417 164.32787425 -14.80807465 159.40449673 -14.80618095 154.48090863 C-14.80606131 150.37047524 -14.81462286 146.26007737 -14.82295847 142.14965385 C-14.84219605 132.45275724 -14.84507493 122.75594672 -14.83831787 113.05903625 C-14.83167525 103.05519985 -14.85454956 93.051732 -14.8916316 83.04797035 C-14.92231615 74.45844094 -14.93369002 65.86903016 -14.92979479 57.27944702 C-14.92772615 52.1495087 -14.93322448 47.01985721 -14.95768738 41.88997078 C-14.97993158 37.06598719 -14.97809608 32.24260345 -14.95775986 27.41861725 C-14.95434578 25.64892805 -14.95945605 23.87919865 -14.97374344 22.10956383 C-14.9919157 19.69179818 -14.97920436 17.27607195 -14.95880127 14.85836792 C-14.97131912 14.15943013 -14.98383697 13.46049235 -14.99673414 12.74037462 C-14.89649002 7.193005 -13.1138318 4.9154715 -9.33734131 1.14717102 C-6.34641416 -0.34829255 -3.28034798 -0.00083812 0 0 Z " fill="#E4E4E4" transform="translate(163.33734130859375,175.8528289794922)"/>
<path d="M0 0 C0.7651833 -0.00367669 1.5303666 -0.00735338 2.31873727 -0.01114148 C4.89660058 -0.02220201 7.47442361 -0.02602616 10.05230713 -0.02983093 C11.89506153 -0.0360938 13.73781467 -0.04274045 15.58056641 -0.04974365 C20.59721537 -0.06716997 25.6138548 -0.0777099 30.63052654 -0.08594918 C33.7633525 -0.09109597 36.89617547 -0.09717185 40.02899933 -0.10346031 C49.82672754 -0.12251709 59.62444819 -0.13674709 69.42219138 -0.14507228 C80.73966104 -0.15484696 92.05693523 -0.18117051 103.374336 -0.22157317 C112.11664999 -0.25171398 120.85890788 -0.26653923 129.60127282 -0.26985329 C134.82512846 -0.27220614 140.04877539 -0.28119704 145.27257538 -0.30631447 C150.1875282 -0.32956451 155.10213447 -0.33384076 160.01712799 -0.32355309 C161.82068534 -0.32305686 163.62425956 -0.32940268 165.42776489 -0.34310913 C167.89138721 -0.36078408 170.35375988 -0.35374426 172.81738281 -0.34057617 C173.8863683 -0.35703004 173.8863683 -0.35703004 174.97694945 -0.37381631 C179.9808582 -0.30930524 182.81666151 0.99843669 186.66265869 4.14717102 C189.27654131 8.06799494 188.93227033 11.39055685 188.89312744 15.93623352 C188.89266922 16.79526276 188.892211 17.65429199 188.89173889 18.53935242 C188.88871953 20.35330081 188.88084264 22.16724669 188.86846924 23.9811554 C188.85018371 26.76835738 188.84795978 29.55522775 188.84820557 32.34248352 C188.84329144 34.10290308 188.83746358 35.86332038 188.83062744 37.62373352 C188.82951462 38.46223846 188.82840179 39.30074341 188.82725525 40.16465759 C188.77871482 46.03111489 188.77871482 46.03111489 187.66265869 47.14717102 C185.05764333 47.24496397 182.47915847 47.27711738 179.873703 47.26742554 C178.635105 47.26870717 178.635105 47.26870717 177.37148482 47.2700147 C174.58302319 47.27167204 171.7946207 47.26614402 169.00616455 47.26069641 C167.01589459 47.26041457 165.02562452 47.26057222 163.03535461 47.26113892 C157.61409009 47.261427 152.19284749 47.25552849 146.77158809 47.24856496 C141.11276659 47.24233326 135.45394464 47.24172777 129.79512024 47.24053955 C119.07119377 47.23742569 108.34727744 47.22921157 97.62335545 47.21919006 C85.41800356 47.20803062 73.2126512 47.2025189 61.00729549 47.19749463 C35.89241093 47.18702899 10.77753538 47.1694285 -14.33734131 47.14717102 C-14.46127767 41.56050138 -14.55183886 35.97463819 -14.61199951 30.38691711 C-14.63708735 28.48768671 -14.67116599 26.58855232 -14.71453857 24.68965149 C-14.77544461 21.95389581 -14.80360784 19.21942033 -14.82562256 16.48310852 C-14.85142899 15.63912506 -14.87723541 14.7951416 -14.90382385 13.92558289 C-14.90582323 9.68823825 -14.64928229 6.98533622 -11.93182373 3.62617493 C-7.96603027 -0.16310397 -5.2461163 -0.00134037 0 0 Z " fill="#28B2FB" transform="translate(163.33734130859375,175.8528289794922)"/>
<path d="M0 0 C3.47214266 0.27232491 4.7550428 0.8175428 7.1875 3.25 C7.1875 3.91 7.1875 4.57 7.1875 5.25 C8.45648132 5.24111755 9.72546265 5.23223511 11.03289795 5.2230835 C22.9811121 5.14206143 34.92927065 5.08206514 46.87769699 5.04275131 C53.0207945 5.02186031 59.16367057 4.99351455 65.30664062 4.94824219 C71.23292472 4.90483917 77.15899558 4.8808743 83.08542633 4.87049103 C85.34851693 4.86308975 87.61159562 4.8486371 89.87459564 4.82707977 C93.04002776 4.79812015 96.2045743 4.79404097 99.37011719 4.79589844 C100.30951141 4.78151733 101.24890564 4.76713623 102.21676636 4.75231934 C108.54667838 4.79261609 108.54667838 4.79261609 111.80499268 7.1182251 C113.1875 9.25 113.1875 9.25 113.125 11.8125 C112.10769982 14.45748046 111.41075633 15.52735893 109.1875 17.25 C106.81465149 17.61076355 106.81465149 17.61076355 103.98168945 17.59057617 C102.92081619 17.59034958 101.85994293 17.59012299 100.766922 17.58988953 C99.05118233 17.56666374 99.05118233 17.56666374 97.30078125 17.54296875 C96.12863571 17.53872391 94.95649017 17.53447906 93.74882507 17.53010559 C89.99898466 17.51329072 86.24967843 17.47563232 82.5 17.4375 C79.96029421 17.42245684 77.42058001 17.4087678 74.88085938 17.39648438 C68.64955681 17.36337796 62.41856656 17.31315028 56.1875 17.25 C56.46464844 18.25160156 56.74179687 19.25320312 57.02734375 20.28515625 C57.39344952 21.62754409 57.75932251 22.96999543 58.125 24.3125 C58.39860352 25.29766602 58.39860352 25.29766602 58.67773438 26.30273438 C58.85498047 26.95693359 59.03222656 27.61113281 59.21484375 28.28515625 C59.37718506 28.8769165 59.53952637 29.46867676 59.70678711 30.07836914 C61.71692577 39.15921395 61.1875 46.51065917 61.1875 56.25 C21.2575 56.25 -18.6725 56.25 -59.8125 56.25 C-59.8125 40.29878049 -59.8125 40.29878049 -59 33.9375 C-58.84917969 32.68324219 -58.69835937 31.42898437 -58.54296875 30.13671875 C-57.8125 26.25 -57.8125 26.25 -54.8125 17.25 C-63.0625 17.25 -71.3125 17.25 -79.8125 17.25 C-79.6578125 21.8596875 -79.6578125 21.8596875 -79.5 26.5625 C-79.47510498 27.52712158 -79.45020996 28.49174316 -79.42456055 29.4855957 C-79.39144775 30.24960693 -79.35833496 31.01361816 -79.32421875 31.80078125 C-79.29803467 32.58106689 -79.27185059 33.36135254 -79.24487305 34.1652832 C-78.71416833 36.72411299 -77.62386681 37.44350492 -75.8125 39.25 C-76.25694444 45.69444444 -76.25694444 45.69444444 -77.8125 47.25 C-78.04537008 48.93183948 -78.22514166 50.6212416 -78.375 52.3125 C-78.45878906 53.23160156 -78.54257813 54.15070313 -78.62890625 55.09765625 C-78.71978516 56.16306641 -78.71978516 56.16306641 -78.8125 57.25 C-79.4725 57.25 -80.1325 57.25 -80.8125 57.25 C-80.8125 55.93 -80.8125 54.61 -80.8125 53.25 C-81.4725 53.25 -82.1325 53.25 -82.8125 53.25 C-82.8125 53.91 -82.8125 54.57 -82.8125 55.25 C-83.4725 55.25 -84.1325 55.25 -84.8125 55.25 C-85.1425 56.57 -85.4725 57.89 -85.8125 59.25 C-86.4725 59.25 -87.1325 59.25 -87.8125 59.25 C-87.86148438 58.41855469 -87.91046875 57.58710938 -87.9609375 56.73046875 C-88.03570312 55.64378906 -88.11046875 54.55710938 -88.1875 53.4375 C-88.25710937 52.35855469 -88.32671875 51.27960938 -88.3984375 50.16796875 C-88.62445733 47.06373814 -88.62445733 47.06373814 -90.8125 44.25 C-90.4375 40.5625 -90.4375 40.5625 -89.8125 37.25 C-88.3275 36.755 -88.3275 36.755 -86.8125 36.25 C-86.8125 29.98 -86.8125 23.71 -86.8125 17.25 C-88.28203125 17.29640625 -89.7515625 17.3428125 -91.265625 17.390625 C-93.19789635 17.42814483 -95.13018967 17.46454476 -97.0625 17.5 C-98.03058594 17.53351563 -98.99867188 17.56703125 -99.99609375 17.6015625 C-107.1703928 17.70051835 -107.1703928 17.70051835 -110.45703125 15.39453125 C-112.14146149 12.72953931 -112.36830654 11.34663642 -111.8125 8.25 C-110.25229007 6.23253204 -109.36935794 5.35393745 -106.83476734 4.88085651 C-106.0779753 4.88362189 -105.32118326 4.88638727 -104.54145813 4.88923645 C-103.67067627 4.88511246 -102.79989441 4.88098846 -101.90272522 4.8767395 C-100.47421486 4.89291824 -100.47421486 4.89291824 -99.0168457 4.90942383 C-97.50926193 4.90876671 -97.50926193 4.90876671 -95.97122192 4.90809631 C-92.64337861 4.91018925 -89.31603674 4.9335445 -85.98828125 4.95703125 C-83.68328629 4.9626254 -81.37828776 4.96689635 -79.07328796 4.96989441 C-73.00196512 4.98135739 -66.93085704 5.01083726 -60.85961914 5.04400635 C-54.66620794 5.07467582 -48.4727621 5.08839307 -42.27929688 5.10351562 C-30.12360347 5.13570541 -17.96806958 5.18691945 -5.8125 5.25 C-5.3484375 4.2909375 -5.3484375 4.2909375 -4.875 3.3125 C-3.32061574 0.29516584 -3.32061574 0.29516584 0 0 Z " fill="#045D9F" transform="translate(249.8125,114.75)"/>
<path d="M0 0 C1.20090523 0.00022659 1.20090523 0.00022659 2.42607117 0.00045776 C3.28553848 0.01078033 4.1450058 0.02110291 5.03051758 0.03173828 C5.91411453 0.03456818 6.79771149 0.03739807 7.70808411 0.04031372 C10.53054337 0.05150981 13.35268545 0.07661327 16.17504883 0.10205078 C18.0884557 0.11208132 20.00186755 0.12120704 21.9152832 0.12939453 C26.60616065 0.15144727 31.29680096 0.18597316 35.98754883 0.22705078 C36.1362715 5.81368438 36.24494038 11.39915717 36.31713867 16.98730469 C36.34724507 18.8865975 36.38814071 20.78575202 36.44018555 22.68457031 C36.51327562 25.42043201 36.54706528 28.15445081 36.57348633 30.89111328 C36.60445404 31.73509674 36.63542175 32.5790802 36.66732788 33.44863892 C36.66985435 37.91065995 36.29588033 40.46170372 33.13842773 43.74804688 C28.69163091 47.71511132 24.06139988 47.36064166 18.38208008 47.32470703 C17.54287521 47.32329208 16.70367035 47.32187714 15.83903503 47.32041931 C13.15933667 47.31482293 10.47972193 47.30227113 7.80004883 47.28955078 C5.98299274 47.28453531 4.16593535 47.27997249 2.34887695 47.27587891 C-2.1049313 47.26485469 -6.55867706 47.24759256 -11.01245117 47.22705078 C-11.11148634 41.62204114 -11.18399829 36.01754316 -11.23217773 30.41186523 C-11.25226663 28.50585048 -11.27954311 26.59989716 -11.31420898 24.6940918 C-11.36284759 21.95101752 -11.38544697 19.20875953 -11.40307617 16.46533203 C-11.42372131 15.61618729 -11.44436646 14.76704254 -11.46563721 13.89216614 C-11.46715843 9.86181135 -11.3501178 7.76976776 -9.17553711 4.2746582 C-6.11811552 1.38046014 -4.18135604 -0.0263808 0 0 Z " fill="#AFB1B2" transform="translate(316.012451171875,325.77294921875)"/>
<path d="M0 0 C0.12381149 5.46256275 0.21443826 10.92430488 0.2746582 16.38793945 C0.29976702 18.24550609 0.33386134 20.10297427 0.37719727 21.96020508 C0.43801124 24.63387358 0.4662452 27.30623365 0.48828125 29.98046875 C0.51408768 30.80773972 0.5398941 31.63501068 0.56648254 32.48735046 C0.56857408 36.80954302 0.40634654 38.47950213 -2.34301758 42.0012207 C-6.87116612 45.40762997 -10.95223796 45.13298918 -16.38671875 45.09765625 C-17.20372757 45.0962413 -18.02073639 45.09482635 -18.86250305 45.09336853 C-21.47087268 45.08777294 -24.07915634 45.07522129 -26.6875 45.0625 C-28.45637897 45.05748443 -30.22525928 45.05292162 -31.99414062 45.04882812 C-36.32946019 45.03780496 -40.66471552 45.02054338 -45 45 C-43.53091388 41.61037866 -41.64216474 39.38914109 -39.04101562 36.78222656 C-38.22677124 35.96167786 -37.41252686 35.14112915 -36.5736084 34.29571533 C-35.69338013 33.41953552 -34.81315186 32.54335571 -33.90625 31.640625 C-33.0037854 30.73624695 -32.1013208 29.8318689 -31.17150879 28.90008545 C-29.26404896 26.99126509 -27.35469588 25.08459451 -25.44189453 23.18115234 C-22.98693691 20.73762119 -20.54111007 18.28517765 -18.09784698 15.82995987 C-15.76799406 13.49116087 -13.43055469 11.15997507 -11.09375 8.828125 C-10.21352173 7.94384827 -9.33329346 7.05957153 -8.4263916 6.14849854 C-7.61214722 5.34055847 -6.79790283 4.53261841 -5.95898438 3.70019531 C-5.24109741 2.98389954 -4.52321045 2.26760376 -3.78356934 1.52960205 C-2 0 -2 0 0 0 Z " fill="#055D9E" transform="translate(351,328)"/>
<path d="M0 0 C0 1.98 0 3.96 0 6 C-66.99 6 -133.98 6 -203 6 C-203 4.35 -203 2.7 -203 1 C-176.67974137 0.86958622 -150.35948261 0.73920052 -124.03922367 0.60884857 C-111.81919918 0.54832784 -99.59917473 0.4877978 -87.37915039 0.42724609 C-76.73234883 0.37448992 -66.08554719 0.32175096 -55.43874544 0.26903296 C-49.79759905 0.24110002 -44.15645271 0.21315826 -38.51530647 0.18519592 C-33.21227084 0.15890982 -27.9092351 0.13264662 -22.60619926 0.10640144 C-20.65381237 0.09673479 -18.70142551 0.08705958 -16.7490387 0.07737541 C-14.09567781 0.06421555 -11.44231677 0.05108573 -8.78895569 0.03796387 C-8.00589697 0.03407292 -7.22283826 0.03018197 -6.41605049 0.02617311 C-1.11412121 0 -1.11412121 0 0 0 Z " fill="#C1C1C0" transform="translate(352,222)"/>
<path d="M0 0 C0.99 0.495 0.99 0.495 2 1 C2 1.66 2 2.32 2 3 C6.22227822 5.05293399 10.02082913 5.28537317 14.62890625 5.26069641 C15.38919128 5.26452196 16.14947632 5.26834751 16.93280029 5.27228898 C19.4761042 5.28259398 22.0191813 5.27863163 24.5625 5.2746582 C26.38761606 5.27900601 28.21273028 5.28418939 30.0378418 5.29014587 C34.99228945 5.3035384 39.94666082 5.30411435 44.90112305 5.30158257 C49.03649511 5.30051323 53.17185171 5.30539521 57.30722046 5.310188 C67.06159622 5.32128365 76.81593348 5.32171998 86.5703125 5.31567383 C96.63655962 5.3096304 106.70266709 5.32195431 116.76889038 5.3432439 C125.41019584 5.3608485 134.0514568 5.36686313 142.69277954 5.36360615 C147.85446978 5.36179163 153.01606036 5.36444649 158.17773438 5.37832069 C163.03031678 5.39087615 167.88268104 5.38897659 172.73526001 5.37590981 C174.51665317 5.37353965 176.29806157 5.37629439 178.07943726 5.38453293 C180.51024392 5.3949649 182.9403138 5.38692876 185.37109375 5.3742218 C186.07683533 5.38159609 186.7825769 5.38897037 187.50970459 5.39656812 C191.87388942 5.34853592 194.47498249 4.55381746 198 2 C198.99 1.34 199.98 0.68 201 0 C200.05482824 3.40261833 199.15899083 4.86918596 196.39838505 7.14054966 C192.52391693 9.26049221 189.54852584 9.55993854 185.25083923 9.50120544 C184.48969977 9.50673984 183.72856032 9.51227424 182.94435602 9.51797634 C180.4038928 9.53154713 177.86441814 9.51663376 175.32397461 9.50170898 C173.49870894 9.50549344 171.67344614 9.51099452 169.84819031 9.51808167 C164.89783225 9.53203605 159.94782175 9.520867 154.99748302 9.50437045 C149.81615476 9.49051508 144.63484657 9.49698051 139.45350647 9.50050354 C130.75369671 9.50320503 122.05402497 9.48973444 113.35424805 9.46655273 C103.29534988 9.43993506 93.23668234 9.4381988 83.17776102 9.4499411 C73.5006801 9.46071852 63.82368264 9.45453262 54.14660835 9.44038582 C50.02828563 9.43462656 45.91002398 9.43470822 41.79170036 9.43945122 C36.94318218 9.444222 32.09491672 9.43411507 27.24644661 9.41249657 C25.46667457 9.40693023 23.68687824 9.406462 21.90710449 9.41144943 C19.47851455 9.41740179 17.05069743 9.40489864 14.62217712 9.38768005 C13.91711767 9.3936901 13.21205821 9.39970014 12.48563331 9.40589231 C8.15745139 9.35005088 5.4351871 8.65922302 2 6 C0 3 0 3 0 0 Z " fill="#D2D1D1" transform="translate(150,367)"/>
<path d="M0 0 C0 2.64 0 5.28 0 8 C-0.66 8 -1.32 8 -2 8 C-2.40102432 8.88507233 -2.40102432 8.88507233 -2.81015015 9.7880249 C-4.01778511 12.03306318 -5.27305262 13.56270993 -7.03759766 15.39160156 C-7.65228912 16.0319635 -8.26698059 16.67232544 -8.90029907 17.33209229 C-9.564841 18.01140808 -10.22938293 18.69072388 -10.9140625 19.390625 C-11.60253265 20.09523865 -12.29100281 20.79985229 -13.00033569 21.52581787 C-14.4582946 23.01140205 -15.91936305 24.49393999 -17.38330078 25.97363281 C-18.87608507 27.48950307 -20.35988202 29.0142773 -21.83447266 30.54785156 C-23.96667195 32.76533883 -26.12410755 34.9551615 -28.2890625 37.140625 C-28.94145905 37.82803772 -29.59385559 38.51545044 -30.26602173 39.22369385 C-33.57864398 42.50572509 -35.68526763 44.4115861 -40.48193359 44.42871094 C-41.64289551 44.28723633 -42.80385742 44.14576172 -44 44 C-42.54360224 40.65405979 -40.70260396 38.44965533 -38.1328125 35.87402344 C-36.94147705 34.67323151 -36.94147705 34.67323151 -35.72607422 33.44818115 C-34.86771973 32.59387512 -34.00936523 31.73956909 -33.125 30.859375 C-32.24473145 29.97719299 -31.36446289 29.09501099 -30.45751953 28.18609619 C-28.12101752 25.84788561 -25.77970581 23.51461799 -23.43676758 21.18286133 C-21.52179237 19.27309251 -19.61427599 17.35595907 -17.70669556 15.43880844 C-15.43430977 13.1574764 -13.15433769 10.88375806 -10.875 8.609375 C-9.58746826 7.31577057 -9.58746826 7.31577057 -8.27392578 5.99603271 C-7.47970215 5.2081134 -6.68547852 4.42019409 -5.8671875 3.60839844 C-5.16706543 2.90986755 -4.46694336 2.21133667 -3.74560547 1.49163818 C-2 0 -2 0 0 0 Z " fill="#0A5187" transform="translate(351,328)"/>
<path d="M0 0 C2.9640585 1.80767693 5.42197673 3.84395345 7 7 C7.375 10.3125 7.375 10.3125 7 14 C3.57216071 18.14948967 1.53578707 19.84893898 -3.8125 20.375 C-7.11983012 20.30270863 -8.04807509 19.96995307 -11 18.125 C-13.42867721 14.33019186 -13.78578534 11.82919936 -13.546875 7.3828125 C-12.95025786 4.78326641 -12.36403334 3.68759857 -10.4375 1.875 C-6.42168649 -0.31544373 -4.4995893 -0.80349809 0 0 Z " fill="#B3B3B3" transform="translate(289,298)"/>
<path d="M0 0 C3.0625 1.9375 3.0625 1.9375 5 5 C5.69113243 8.15864655 5.70352709 10.84270771 5 14 C2.45474088 17.70219508 0.81135075 18.7681855 -3.5 20 C-7.48112565 20 -8.96510436 19.5290797 -12 17 C-14.14935455 14.25772005 -14.93408099 12.45201608 -15.4375 9 C-14.8943967 5.27586307 -13.59513183 3.67145924 -11 1 C-7.50797535 -0.74601232 -3.81017721 -0.55838804 0 0 Z " fill="#B3B3B3" transform="translate(255,269)"/>
<path d="M0 0 C3.125 2 3.125 2 5 5 C5.83152725 9.04350505 5.38896372 12.10538344 3.75 15.875 C1.09333411 19.10095144 -0.77775154 19.81400567 -4.875 20.4375 C-9.2682371 19.82244681 -10.84565969 18.08098355 -14 15 C-15.57455739 11.85088521 -15.34799118 9.47991184 -15 6 C-11.44003678 -0.52659923 -7.19606399 -1.54538423 0 0 Z " fill="#2BB3FA" transform="translate(185,269)"/>
<path d="M0 0 C2.87305972 1.40460697 4.74510999 2.74510999 7 5 C7.77200992 9.56922148 7.59362988 13.05019219 5.125 17 C1.87833197 20.05568756 -0.48634347 20.3919175 -4.9609375 20.359375 C-8.38006698 19.7567698 -9.93189052 17.63213933 -12 15 C-13.41000664 12.17998673 -13.24548451 10.12992745 -13 7 C-10.01415562 0.74394511 -6.81497582 -0.58749792 0 0 Z " fill="#B2B2B2" transform="translate(218,239)"/>
<path d="M0 0 C0.99 0 1.98 0 3 0 C3 8.58 3 17.16 3 26 C2.01 26 1.02 26 0 26 C-0.33 25.34 -0.66 24.68 -1 24 C-1.99 24.66 -2.98 25.32 -4 26 C-7.375 26.5 -7.375 26.5 -11 26 C-14.69374497 22.77779694 -15.77969084 21.25576218 -16.625 16.4375 C-16 13 -16 13 -14 10.0625 C-9.92969005 7.26416191 -7.86254774 7.52171662 -3 8 C-2.34 8.33 -1.68 8.66 -1 9 C-0.67 6.03 -0.34 3.06 0 0 Z " fill="#2F2F2F" transform="translate(302,77)"/>
<path d="M0 0 C3.57703045 0.06275492 4.66800666 0.32312666 7.8125 2.3125 C10.07001915 5.88083672 10.46863669 8.06267688 10.25390625 12.21875 C9.45500939 15.6372854 7.44395048 17.27240451 4.75 19.375 C4.42 19.705 4.09 20.035 3.75 20.375 C-0.31218109 20.76559434 -2.55352594 20.80836164 -6.0625 18.625 C-9.06769661 15.53394063 -10.05312946 13.69684504 -10.6875 9.4375 C-10.10392911 5.35250377 -8.32542999 4.00036706 -5.25 1.375 C-3.69049449 -0.18450551 -2.16122869 0.09303302 0 0 Z " fill="#B3B3B3" transform="translate(250.25,327.625)"/>
<path d="M0 0 C2.89159772 1.56908404 5.03513794 3.35699971 7 6 C7.70246002 10.00402213 7.39180161 12.11844637 5.75 15.8125 C2.75799728 19.55250341 0.83196295 19.89435391 -3.9375 20.5 C-7.53464121 20.39242195 -8.01550997 19.98707503 -11 17.5 C-13.71458092 13.60756702 -13.66265823 10.63860763 -13 6 C-9.41625445 0.38546531 -6.62175615 -0.75987366 0 0 Z " fill="#B3B3B3" transform="translate(324,298)"/>
<path d="M0 0 C5.57894737 3.15789474 5.57894737 3.15789474 7 6 C7.57884232 13.06187625 7.57884232 13.06187625 5.1875 16.9375 C2.35796607 19.60534627 0.4668291 19.9481301 -3.375 20.375 C-7 20 -7 20 -9.875 17.625 C-13.14890672 13.58076228 -13.53202646 11.23159355 -13 6 C-8.97224931 1.1243018 -6.32056233 -0.60774638 0 0 Z " fill="#2AB2FA" transform="translate(183,298)"/>
<path d="M0 0 C2.3828125 0.5078125 2.3828125 0.5078125 5.5078125 2.4453125 C8.02962356 6.56427056 8.43244208 9.79727976 7.3828125 14.5078125 C4.83755338 18.21000758 3.19416325 19.275998 -1.1171875 20.5078125 C-5.09831315 20.5078125 -6.58229186 20.0368922 -9.6171875 17.5078125 C-11.73199432 14.8096107 -12.54182058 12.95059316 -13.1171875 9.5703125 C-12.58121123 6.28745787 -11.65237387 4.11841431 -9.375 1.65234375 C-6.35984771 -0.31085541 -3.51221218 -0.24113696 0 0 Z " fill="#B2B2B2" transform="translate(217.6171875,268.4921875)"/>
<path d="M0 0 C3.5386994 1.65139305 4.81070153 2.71605229 7 6 C7.45971784 10.96495273 7.15065843 14.06167696 4 18 C0.57905881 20.56570589 -2.84773484 20.43708054 -7 20 C-9.75329021 18.20437595 -11.52627461 16.94745078 -13 14 C-13.5811138 6.91041162 -13.5811138 6.91041162 -11.125 3.0625 C-7.50882222 -0.44731961 -4.97588405 -0.33734807 0 0 Z " fill="#B2B2B2" transform="translate(324,239)"/>
<path d="M0 0 C3.0625 1.9375 3.0625 1.9375 5 5 C5.69022545 8.15450142 5.73034598 10.85038296 5 14 C2.81840855 16.75569447 1.12822506 18.43588747 -2 20 C-5.77160651 20.41906739 -7.50970134 20.31200824 -10.75 18.25 C-13.82883254 15.17116746 -14.8240174 13.37853035 -15.375 9.0625 C-14.90977662 5.2631757 -13.63608379 3.71361566 -11 1 C-7.50797535 -0.74601232 -3.81017721 -0.55838804 0 0 Z " fill="#B2B2B2" transform="translate(220,328)"/>
<path d="M0 0 C2.92584944 1.3154029 3.83752812 2.40503374 6 5 C6.98128877 9.02247296 6.3829895 12.11912416 4.75 15.875 C2.09333411 19.10095144 0.22224846 19.81400567 -3.875 20.4375 C-8.2682371 19.82244681 -9.84565969 18.08098355 -13 15 C-14.55024464 11.89951072 -14.28992015 9.42105782 -14 6 C-10.2916343 0.31383925 -6.72017026 -1.07024934 0 0 Z " fill="#2AB2FB" transform="translate(184,328)"/>
<path d="M0 0 C2.5647293 1.50012468 4.89183465 2.89183465 7 5 C7.66637412 9.52182437 7.74310232 13.71201282 5.0625 17.5625 C1.48052161 20.41346239 -0.37552234 20.82559105 -4.84375 20.53515625 C-8.27578219 19.68336565 -9.9084859 17.74511226 -12 15 C-13.45147903 12.09704195 -13.37239025 10.22738221 -13 7 C-9.58798533 1.48730466 -6.4900561 -0.62404386 0 0 Z " fill="#B2B2B2" transform="translate(218,298)"/>
<path d="M0 0 C3.4185354 0.79889686 5.05365451 2.80995577 7.15625 5.50390625 C7.48625 5.83390625 7.81625 6.16390625 8.15625 6.50390625 C8.60855285 10.39371076 8.28352631 12.26753597 6.40625 15.75390625 C3.14967105 19.73416941 3.14967105 19.73416941 0.15625 20.50390625 C-4.04016311 20.42760783 -6.29863384 19.87504917 -9.78125 17.50390625 C-12.21315247 13.96659357 -12.59095913 11.88091308 -12.31640625 7.6640625 C-11.84375 5.50390625 -11.84375 5.50390625 -9.90625 2.44140625 C-6.33791328 0.1838871 -4.15607312 -0.21473044 0 0 Z " fill="#2AB2FA" transform="translate(287.84375,268.49609375)"/>
<path d="M0 0 C3.4375 1.9375 3.4375 1.9375 6 5 C6.74526995 8.14606321 6.6855981 10.84624876 6 14 C4.20606332 16.87029869 3.01736724 18.49131638 0 20 C-6.76001303 20.90133507 -6.76001303 20.90133507 -9.859375 18.6484375 C-12.45987154 15.83742457 -13.84307843 13.69901425 -14.6875 9.9375 C-13.72419559 5.82156297 -11.94981618 4.0200499 -9 1 C-5.85088521 -0.57455739 -3.47991184 -0.34799118 0 0 Z " fill="#B2B2B2" transform="translate(254,298)"/>
<path d="M0 0 C2.87029869 1.79393668 4.49131638 2.98263276 6 6 C6.17199251 9.80626901 6.04130648 13.51630842 3.8046875 16.703125 C1.31790325 18.96857243 -0.7603918 19.96088029 -4.0625 20.5 C-8.0874193 19.81490735 -10.77722178 18.57214342 -13.3125 15.3125 C-14.35186067 11.81646867 -14.66471655 8.57108357 -14 5 C-10.4338531 -0.52177585 -6.13886453 -1.23444558 0 0 Z " fill="#B2B2B2" transform="translate(325,269)"/>
<path d="M0 0 C2.9640585 1.80767693 5.42197673 3.84395345 7 7 C7.40417552 9.96395382 7.56382171 12.08904926 5.953125 14.69140625 C4.15636794 16.88450678 2.55808759 18.7209562 0 20 C-4.18144011 20.39447548 -6.30946048 20.45035186 -9.875 18.125 C-12.70117641 15.29882359 -13.22109882 13.58927894 -13.4375 9.6875 C-13.38665152 5.7467431 -13.127243 5.1520709 -10.4375 1.9375 C-6.41915413 -0.32738586 -4.53425456 -0.80968831 0 0 Z " fill="#B2B2B2" transform="translate(289,239)"/>
<path d="M0 0 C3.4375 1.9375 3.4375 1.9375 6 5 C6.74526995 8.14606321 6.6855981 10.84624876 6 14 C4.20606332 16.87029869 3.01736724 18.49131638 0 20 C-6.99015219 20.68755595 -6.99015219 20.68755595 -10.9375 18 C-13.45180202 14.34283343 -14.61793741 11.45611201 -14 7 C-10.64706005 0.89896417 -6.7588894 -0.67588894 0 0 Z " fill="#B2B2B2" transform="translate(254,239)"/>
<path d="M0 0 C2.32421875 0.08984375 2.32421875 0.08984375 5 1 C7.01953125 3.50390625 7.01953125 3.50390625 8.8125 6.5625 C9.41707031 7.57441406 10.02164062 8.58632812 10.64453125 9.62890625 C11.09183594 10.41136719 11.53914063 11.19382813 12 12 C12.33 8.04 12.66 4.08 13 0 C14.65 0 16.3 0 18 0 C18 7.26 18 14.52 18 22 C16.35 22 14.7 22 13 22 C10.98046875 19.8125 10.98046875 19.8125 9.1875 17 C8.58292969 16.071875 7.97835938 15.14375 7.35546875 14.1875 C6.68451172 13.1046875 6.68451172 13.1046875 6 12 C5.67 15.3 5.34 18.6 5 22 C3.02 22 1.04 22 -1 22 C-1.02887814 18.52085059 -1.04675687 15.04173169 -1.0625 11.5625 C-1.07087891 10.56927734 -1.07925781 9.57605469 -1.08789062 8.55273438 C-1.09111328 7.60849609 -1.09433594 6.66425781 -1.09765625 5.69140625 C-1.10289307 4.81685791 -1.10812988 3.94230957 -1.11352539 3.04125977 C-1 1 -1 1 0 0 Z " fill="#E7F6FC" transform="translate(319,188)"/>
<path d="M0 0 C1.134375 0.020625 2.26875 0.04125 3.4375 0.0625 C6.19700985 7.30446241 8.5202282 14.55318545 10.4375 22.0625 C8.4575 22.0625 6.4775 22.0625 4.4375 22.0625 C4.4375 20.7425 4.4375 19.4225 4.4375 18.0625 C1.4675 18.3925 -1.5025 18.7225 -4.5625 19.0625 C-4.8925 20.0525 -5.2225 21.0425 -5.5625 22.0625 C-7.2125 22.0625 -8.8625 22.0625 -10.5625 22.0625 C-9.98458517 16.95320756 -8.8444361 12.54638389 -7.0625 7.6875 C-6.6190625 6.46289062 -6.175625 5.23828125 -5.71875 3.9765625 C-4.16994565 0.07315694 -4.16994565 0.07315694 0 0 Z " fill="#E6F5FB" transform="translate(302.5625,187.9375)"/>
<path d="M0 0 C0.99 0 1.98 0 3 0 C4.71476218 2.43442921 6.21480731 4.80072379 7.6875 7.375 C8.10322266 8.07367188 8.51894531 8.77234375 8.94726562 9.4921875 C12 14.70539563 12 14.70539563 12 17 C12.66 17 13.32 17 14 17 C14.2578125 16.13117188 14.515625 15.26234375 14.78125 14.3671875 C16.02126202 10.94125685 17.54031535 8.1890832 19.5 5.125 C20.41265625 3.67480469 20.41265625 3.67480469 21.34375 2.1953125 C22.16359375 1.10863281 22.16359375 1.10863281 23 0 C23.66 0 24.32 0 25 0 C25 7.92 25 15.84 25 24 C24.34 24 23.68 24 23 24 C22.67 18.39 22.34 12.78 22 7 C19.36 11.62 16.72 16.24 14 21 C8.56189114 19.18729705 6.67226634 12.78991136 4 8 C3.67 13.28 3.34 18.56 3 24 C2.01 24 1.02 24 0 24 C0 16.08 0 8.16 0 0 Z " fill="#1F1F1F" transform="translate(142,79)"/>
<path d="M0 0 C3.41886895 0.86161012 4.94716288 2.68936967 6.9375 5.48828125 C6.9375 7.13828125 6.9375 8.78828125 6.9375 10.48828125 C1.9875 10.48828125 -2.9625 10.48828125 -8.0625 10.48828125 C-7.0725 12.13828125 -6.0825 13.78828125 -5.0625 15.48828125 C-1.27636577 15.89393849 1.32826038 15.69136112 4.9375 14.48828125 C3.9375 17.48828125 3.9375 17.48828125 1.9375 18.48828125 C-1.07385805 18.83384693 -3.15611171 19.06622462 -6.0625 18.48828125 C-9.62602884 15.4444337 -10.87708415 13.54515159 -11.6875 8.92578125 C-11.0625 5.48828125 -11.0625 5.48828125 -9.0625 2.55078125 C-5.7253114 0.25646409 -3.9630806 -0.26270421 0 0 Z " fill="#363636" transform="translate(276.0625,84.51171875)"/>
<path d="M0 0 C3.30932995 0.26324216 4.15731635 0.80220984 7 2.875 C9 5.6875 9 5.6875 9 10.6875 C4.05 10.6875 -0.9 10.6875 -6 10.6875 C-4.5 14.6875 -4.5 14.6875 -2 15.6875 C1.37822416 15.83125422 3.77390955 15.76286348 7 14.6875 C6 17.6875 6 17.6875 4 18.6875 C-0.18144011 19.08197548 -2.30946048 19.13785186 -5.875 16.8125 C-8.3471253 14.3403747 -8.90505979 13.3837282 -9.375 9.9375 C-8.72703849 4.32183358 -5.81632916 0.38555212 0 0 Z " fill="#222222" transform="translate(351,84.3125)"/>
<path d="M0 0 C1.65 0 3.3 0 5 0 C5.08710289 3.10398978 5.14042309 6.20766548 5.1875 9.3125 C5.21263672 10.19357422 5.23777344 11.07464844 5.26367188 11.98242188 C5.27333984 12.82998047 5.28300781 13.67753906 5.29296875 14.55078125 C5.3086792 15.33106689 5.32438965 16.11135254 5.34057617 16.9152832 C4.9107909 19.54606201 4.10262371 20.4079644 2 22 C-0.59375 22.36328125 -0.59375 22.36328125 -3.5 22.3125 C-4.4590625 22.30863281 -5.418125 22.30476563 -6.40625 22.30078125 C-9 22 -9 22 -12 20 C-12.1875 16.375 -12.1875 16.375 -12 13 C-10.35 13 -8.7 13 -7 13 C-7 14.65 -7 16.3 -7 18 C-4.69 18 -2.38 18 0 18 C0 12.06 0 6.12 0 0 Z " fill="#F0F9FC" transform="translate(281,188)"/>
<path d="M0 0 C2.375 1.625 2.375 1.625 4 4 C4.60975382 7.65852292 4.44543026 9.30512879 2.4375 12.4375 C0 14 0 14 -3.625 13.875 C-7 13 -7 13 -9 11 C-9.55641422 3.98918083 -9.55641422 3.98918083 -7.875 1 C-5.05480125 -0.504106 -3.14389944 -0.44912849 0 0 Z " fill="#F6F6F6" transform="translate(298,87)"/>
<path d="M0 0 C0.87785156 0.01546875 1.75570312 0.0309375 2.66015625 0.046875 C4.9375 0.25 4.9375 0.25 6.9375 1.25 C6.9375 1.91 6.9375 2.57 6.9375 3.25 C3.3075 3.25 -0.3225 3.25 -4.0625 3.25 C-4.3925 4.9 -4.7225 6.55 -5.0625 8.25 C-4.47082031 8.42015625 -3.87914062 8.5903125 -3.26953125 8.765625 C1.46907903 10.21890189 5.50603164 11.48645406 8.9375 15.25 C9.5625 17.75 9.5625 17.75 8.9375 20.25 C6.77269093 22.83380437 5.11987952 24.07958587 1.7421875 24.56640625 C-2.47779052 24.67086115 -5.34357722 24.35823287 -9.0625 22.25 C-9.0625 21.59 -9.0625 20.93 -9.0625 20.25 C-8.381875 20.415 -7.70125 20.58 -7 20.75 C-3.00013809 21.43082756 1.22166227 22.10791887 4.9375 20.25 C5.59305119 17.72266765 5.59305119 17.72266765 5.9375 15.25 C4.79861328 14.95996094 4.79861328 14.95996094 3.63671875 14.6640625 C2.64285156 14.40367188 1.64898437 14.14328125 0.625 13.875 C-0.36113281 13.61976562 -1.34726563 13.36453125 -2.36328125 13.1015625 C-5.0625 12.25 -5.0625 12.25 -8.0625 10.25 C-8.72406905 4.18561707 -8.72406905 4.18561707 -6.85546875 1.54296875 C-4.46300732 -0.18231389 -2.92216905 -0.08607273 0 0 Z " fill="#262626" transform="translate(210.0625,78.75)"/>
<path d="M0 0 C0.99 0 1.98 0 3 0 C3.06058594 0.99902344 3.12117188 1.99804688 3.18359375 3.02734375 C3.26738281 4.31769531 3.35117187 5.60804687 3.4375 6.9375 C3.51871094 8.22527344 3.59992188 9.51304688 3.68359375 10.83984375 C3.64919188 13.86023957 3.64919188 13.86023957 5 15 C7.95817107 15.25005386 7.95817107 15.25005386 11 15 C13.77042109 12.22957891 13.39796106 10.23466195 13.625 6.375 C13.69976562 5.18648438 13.77453125 3.99796875 13.8515625 2.7734375 C13.90054687 1.85820313 13.94953125 0.94296875 14 0 C14.99 0 15.98 0 17 0 C17 5.94 17 11.88 17 18 C15.68 17.67 14.36 17.34 13 17 C12.34 17.33 11.68 17.66 11 18 C7.625 18.375 7.625 18.375 4 18 C1.10363265 15.2520331 0.07781636 13.66377354 -0.390625 9.66796875 C-0.34421875 8.51941406 -0.2978125 7.37085937 -0.25 6.1875 C-0.21390625 5.02605469 -0.1778125 3.86460938 -0.140625 2.66796875 C-0.07101562 1.34732422 -0.07101562 1.34732422 0 0 Z " fill="#232323" transform="translate(311,85)"/>
<path d="M0 0 C3 1 3 1 4.38671875 3.43359375 C4.81597656 4.42488281 5.24523437 5.41617188 5.6875 6.4375 C6.34298828 7.92056641 6.34298828 7.92056641 7.01171875 9.43359375 C8 12 8 12 8 14 C8.66 14 9.32 14 10 14 C10.29003906 13.11248047 10.29003906 13.11248047 10.5859375 12.20703125 C11.94414719 8.0853355 13.32050585 4.0049476 15 0 C15.99 0.33 16.98 0.66 18 1 C16.57078892 4.25370726 15.13019761 7.50225282 13.6875 10.75 C13.28337891 11.67039062 12.87925781 12.59078125 12.46289062 13.5390625 C11.86831055 14.87324219 11.86831055 14.87324219 11.26171875 16.234375 C10.90037842 17.05131836 10.53903809 17.86826172 10.16674805 18.70996094 C8.96290317 21.07281194 7.78340325 23.03353311 6 25 C2.8125 25.25 2.8125 25.25 0 25 C-0.33 24.01 -0.66 23.02 -1 22 C0.98 22 2.96 22 5 22 C6.26540553 16.30929056 5.71006444 13.34454728 3.0625 8.1875 C0 2.12528474 0 2.12528474 0 0 Z " fill="#1F1F1F" transform="translate(172,85)"/>
<path d="M0 0 C0.66 0 1.32 0 2 0 C2 3.3 2 6.6 2 10 C2.99 9.34 3.98 8.68 5 8 C6.9375 7.69921875 6.9375 7.69921875 9 7.6875 C9.680625 7.67074219 10.36125 7.65398437 11.0625 7.63671875 C13 8 13 8 14.73828125 9.0390625 C16.69361807 12.07800703 16.31441514 15.20221509 16.1875 18.6875 C16.16719727 19.7403418 16.16719727 19.7403418 16.14648438 20.81445312 C16.11120182 22.54329829 16.05739583 24.27174765 16 26 C15.34 26 14.68 26 14 26 C13.67 21.05 13.34 16.1 13 11 C8.9899066 10.82135369 8.9899066 10.82135369 5 11 C2.22957891 13.77042109 2.60203894 15.76533805 2.375 19.625 C2.30023438 20.81351563 2.22546875 22.00203125 2.1484375 23.2265625 C2.09945312 24.14179687 2.05046875 25.05703125 2 26 C1.34 26 0.68 26 0 26 C0 17.42 0 8.84 0 0 Z " fill="#080808" transform="translate(244,77)"/>
<path d="M0 0 C0.66 1.32 1.32 2.64 2 4 C1.01 3.67 0.02 3.34 -1 3 C-4.54187831 2.66661404 -4.54187831 2.66661404 -8 3 C-10.31282587 6.46923881 -10.42478586 7.92205575 -10 12 C-8.87479092 13.80784241 -8.87479092 13.80784241 -7 15 C-4.47342233 15.14634071 -4.47342233 15.14634071 -1.8125 14.6875 C-0.91144531 14.56761719 -0.01039063 14.44773437 0.91796875 14.32421875 C1.94857422 14.16373047 1.94857422 14.16373047 3 14 C0.61088804 17.0580633 -0.52854858 17.93142525 -4.4375 18.5 C-8.51937671 17.92710502 -10.11783728 16.88216272 -13 14 C-14.45147903 11.09704195 -14.37239025 9.22738221 -14 6 C-10.32387379 -0.40357469 -7.10280823 -0.8356245 0 0 Z " fill="#292929" transform="translate(236,85)"/>
<path d="M0 0 C0.99 0 1.98 0 3 0 C4.14702282 5.25081557 3.93088566 10.06516538 3.5625 15.375 C3.51029297 16.20644531 3.45808594 17.03789063 3.40429688 17.89453125 C3.27561269 19.93008108 3.13864593 21.96510441 3 24 C2.01 24 1.02 24 0 24 C0 16.08 0 8.16 0 0 Z " fill="#2A2A2A" transform="translate(142,79)"/>
<path d="M0 0 C0.99 0.33 1.98 0.66 3 1 C2.67 1.66 2.34 2.32 2 3 C1.76565288 4.9129402 1.76565288 4.9129402 1.75 7 C1.72421875 7.70125 1.6984375 8.4025 1.671875 9.125 C1.78015625 9.74375 1.8884375 10.3625 2 11 C5.45214853 13.30143236 6.23479324 13.13833854 10.1875 12.625 C11.08855469 12.51414062 11.98960937 12.40328125 12.91796875 12.2890625 C13.60503906 12.19367188 14.29210937 12.09828125 15 12 C14.67 13.32 14.34 14.64 14 16 C13.67 15.34 13.34 14.68 13 14 C12.01 14.66 11.02 15.32 10 16 C6.625 16.5 6.625 16.5 3 16 C-0.78212285 12.70070134 -1.8451105 11.30549722 -2.4375 6.3125 C-2 3 -2 3 0 0 Z " fill="#161616" transform="translate(288,87)"/>
<path d="M0 0 C0.87785156 0.01546875 1.75570312 0.0309375 2.66015625 0.046875 C4.9375 0.25 4.9375 0.25 6.9375 1.25 C6.9375 1.91 6.9375 2.57 6.9375 3.25 C3.3075 3.25 -0.3225 3.25 -4.0625 3.25 C-4.3925 4.9 -4.7225 6.55 -5.0625 8.25 C-1.5975 9.735 -1.5975 9.735 1.9375 11.25 C1.9375 11.91 1.9375 12.57 1.9375 13.25 C-4.6875 12.5 -4.6875 12.5 -8.0625 10.25 C-8.72406905 4.18561707 -8.72406905 4.18561707 -6.85546875 1.54296875 C-4.46300732 -0.18231389 -2.92216905 -0.08607273 0 0 Z " fill="#161616" transform="translate(210.0625,78.75)"/>
<path d="M0 0 C3.125 0.375 3.125 0.375 5.5 2.25 C7.125 4.375 7.125 4.375 7.125 6.375 C2.835 6.375 -1.455 6.375 -5.875 6.375 C-4.4255618 0.57724719 -4.4255618 0.57724719 0 0 Z " fill="#EBEBEB" transform="translate(350.875,86.625)"/>
<path d="M0 0 C3.0625 0.3125 3.0625 0.3125 4.9375 1.625 C6.0625 3.3125 6.0625 3.3125 6.0625 6.3125 C2.1025 6.3125 -1.8575 6.3125 -5.9375 6.3125 C-4.47848361 0.47643443 -4.47848361 0.47643443 0 0 Z " fill="#F2F2F2" transform="translate(273.9375,86.6875)"/>
<path d="M0 0 C0.33 0.66 0.66 1.32 1 2 C5.95 1.67 10.9 1.34 16 1 C16 1.66 16 2.32 16 3 C11.05 3 6.1 3 1 3 C2.98 5.97 2.98 5.97 5 9 C8.83710078 9.4712229 11.3435672 9.21881093 15 8 C14 11 14 11 12 12 C4.9478673 12.56872038 4.9478673 12.56872038 1.5 10.5 C-0.68405234 6.85991277 -0.28023018 4.20345267 0 0 Z " fill="#0C0C0C" transform="translate(266,91)"/>
<path d="M0 0 C0.66 0 1.32 0 2 0 C2 7.92 2 15.84 2 24 C1.34 24 0.68 24 0 24 C-0.06058594 22.73542969 -0.12117187 21.47085938 -0.18359375 20.16796875 C-0.26800904 18.50780129 -0.35265655 16.84764563 -0.4375 15.1875 C-0.47681641 14.35412109 -0.51613281 13.52074219 -0.55664062 12.66210938 C-0.59853516 11.85966797 -0.64042969 11.05722656 -0.68359375 10.23046875 C-0.73858032 9.12288208 -0.73858032 9.12288208 -0.79467773 7.99291992 C-0.94842141 5.792505 -0.94842141 5.792505 -2 3 C-1.34 2.01 -0.68 1.02 0 0 Z " fill="#020202" transform="translate(165,79)"/>
<path d="M0 0 C3.67169817 0.06019177 4.14921887 0.40559906 7.1875 2.9375 C7.8475 3.7625 8.5075 4.5875 9.1875 5.4375 C8.8575 6.0975 8.5275 6.7575 8.1875 7.4375 C7.48625 6.7775 6.785 6.1175 6.0625 5.4375 C2.66854445 3.07648745 1.23581424 2.84712084 -2.8125 3.4375 C-5.63030534 4.82635248 -5.63030534 4.82635248 -7.8125 6.4375 C-5.80292057 2.13125836 -5.01057041 0.57498349 0 0 Z " fill="#1C1C1C" transform="translate(350.8125,84.5625)"/>
<path d="M0 0 C0.61875 0.350625 1.2375 0.70125 1.875 1.0625 C6.37011449 2.41103435 10.40954987 1.65959866 15 1 C12.57526306 4.10366328 11.48536323 4.9393296 7.5 5.4375 C3.93778361 4.99222295 2.46005908 4.55846145 0 2 C0 1.34 0 0.68 0 0 Z " fill="#161616" transform="translate(224,98)"/>
<path d="M0 0 C2.12508244 3.18762365 2.5020163 5.26512223 3 9 C1.35 9 -0.3 9 -2 9 C-1.125 1.125 -1.125 1.125 0 0 Z " fill="#44BCFA" transform="translate(302,193)"/>
<path d="M0 0 C4.62 0.66 9.24 1.32 14 2 C13.67 2.66 13.34 3.32 13 4 C11.58376784 4.05447047 10.16691809 4.09300508 8.75 4.125 C7.96109375 4.14820312 7.1721875 4.17140625 6.359375 4.1953125 C3.79268059 3.9828378 2.2083933 3.28654105 0 2 C0 1.34 0 0.68 0 0 Z " fill="#151515" transform="translate(201,99)"/>
<path d="M0 0 C0.66 1.32 1.32 2.64 2 4 C0.875 6 0.875 6 -1 8 C-4.1875 8.25 -4.1875 8.25 -7 8 C-7.33 7.01 -7.66 6.02 -8 5 C-6.02 5 -4.04 5 -2 5 C-1.34 3.35 -0.68 1.7 0 0 Z " fill="#292929" transform="translate(179,102)"/>
<path d="M0 0 C0.66 0.99 1.32 1.98 2 3 C0.35 5.97 -1.3 8.94 -3 12 C-3.66 11.67 -4.32 11.34 -5 11 C-3.55049545 7.2089881 -1.84827434 3.6125362 0 0 Z " fill="#252525" transform="translate(162,83)"/>
<path d="M0 0 C0.33 0 0.66 0 1 0 C1.33 5.94 1.66 11.88 2 18 C-1.49238487 13.34348683 -1.25378455 12.30988471 -0.6875 6.75 C-0.56761719 5.48671875 -0.44773437 4.2234375 -0.32421875 2.921875 C-0.21722656 1.95765625 -0.11023438 0.9934375 0 0 Z " fill="#353535" transform="translate(325,85)"/>
<path d="M0 0 C0.99 0.33 1.98 0.66 3 1 C2.7452486 2.31571603 2.47065859 3.62760376 2.1875 4.9375 C2.03667969 5.66839844 1.88585937 6.39929688 1.73046875 7.15234375 C1.48941406 7.76207031 1.24835938 8.37179688 1 9 C0.01 9.33 -0.98 9.66 -2 10 C-2.25 3.375 -2.25 3.375 0 0 Z " fill="#343434" transform="translate(288,87)"/>
<path d="M0 0 C6.0546875 -0.1953125 6.0546875 -0.1953125 8 0 C8.66 0.66 9.32 1.32 10 2 C7.24921116 2.91692961 5.64051087 3.10886083 2.8125 3.0625 C0.9253125 3.0315625 0.9253125 3.0315625 -1 3 C-0.67 2.01 -0.34 1.02 0 0 Z " fill="#1B1B1B" transform="translate(291,85)"/>
<path d="M0 0 C2.31 0 4.62 0 7 0 C7.66 1.32 8.32 2.64 9 4 C5.7 3.34 2.4 2.68 -1 2 C-0.67 1.34 -0.34 0.68 0 0 Z " fill="#111111" transform="translate(229,85)"/>
<path d="M0 0 C0.99 0.495 0.99 0.495 2 1 C2 1.66 2 2.32 2 3 C4.475 3.99 4.475 3.99 7 5 C6.67 5.99 6.34 6.98 6 8 C2.83884224 6.63016497 2.0072908 6.0109362 0 3 C0 2.01 0 1.02 0 0 Z " fill="#D0D0D0" transform="translate(150,367)"/>
<path d="M0 0 C0.33 0 0.66 0 1 0 C1.268125 1.093125 1.53625 2.18625 1.8125 3.3125 C2.87663739 6.61692663 3.34654664 7.94960422 6 10 C5.01 10.33 4.02 10.66 3 11 C1.5 10 1.5 10 0 8 C-0.27345479 5.28153765 -0.13491285 2.74322801 0 0 Z " fill="#0D0D0D" transform="translate(287,91)"/>
<path d="M0 0 C2.475 0.495 2.475 0.495 5 1 C4.67 2.65 4.34 4.3 4 6 C3.34 6 2.68 6 2 6 C1.34 4.02 0.68 2.04 0 0 Z " fill="#121212" transform="translate(178,98)"/>
<path d="M0 0 C0 3.51716303 -0.82445585 4.37121748 -3 7 C-4.32 6.34 -5.64 5.68 -7 5 C-6.21625 4.54625 -5.4325 4.0925 -4.625 3.625 C-1.96301969 2.11571258 -1.96301969 2.11571258 0 0 Z " fill="#B4BEC6" transform="translate(350,367)"/>
</svg>
